{"title":"Pedro Costa - Ossos (Bones) - 1997","uid":5366100,"size":1061079655,"categoryP":"video","categoryS":"movies","magnet":"?xt=urn:btih:fdbe923d3e0b217a002dedf2868602a6d0defb26&amp;dn=Pedro+Costa+-+Ossos+%28Bones%29+-+1997&amp;tr=udp%3A%2F%2Ftracker.openbittorrent.com%3A80&amp;tr=udp%3A%2F%2Fopen.demonii.com%3A1337&amp;tr=udp%3A%2F%2Ftracker.coppersurfer.tk%3A6969&amp;tr=udp%3A%2F%2Fexodus.desync.com%3A6969","seeders":4,"leechers":0,"uploader":"mfccorrea","files":4,"time":1266266792,"description":"Realizing that teenage mom Tina is about to gas herself and her new child, Tina's young boyfriend grabs the infant and takes it to the streets of Lisbon. What he does next comprises the bulk of this extremely downbeat, minimalist drama from Portuguese director Pedro Costa. Once in the street, the boyfriend attempts to sell the child. When that fails, he leaves it at a nurse's house. That doesn't work out either so the youth gives the baby to a streetwalker. Meanwhile Tina and her friend try to get the baby back. When they fail, they decide to get revenge upon the boyfriend.\n\n   General\n      Complete name : Ossos.avi\n      Format : AVI\n      Format/Info : Audio Video Interleave\n      File size : 1 012 MiB\n      Duration : 1h 33mn\n      Overall bit rate : 1 514 Kbps\n      Writing application : VirtualDubMod 1.5.4.1 (build 2178/release)\n      Writing library : VirtualDubMod build 2178/release\n   Video #0\n      ID : 0\n      Format : MPEG-4 Visual\n      Format profile : AdvancedSimple@L5\n      Format settings, BVOP : Yes\n      Format settings, QPel : No\n      Format settings, GMC : No warppoints\n      Format settings, Matrix : Custom\n      Codec ID : XVID\n      Codec ID/Hint : XviD\n      Duration : 1h 33mn\n      Bit rate : 1 059 Kbps\n      Width : 640 pixels\n      Height : 400 pixels\n      Display aspect ratio : 1.600\n      Frame rate : 25.000 fps\n      Resolution : 24 bits\n      Colorimetry : 4:2:0\n      Scan type : Progressive\n      Bits/(Pixel*Frame) : 0.165\n      Stream size : 708 MiB (70%)\n      Writing library : XviD 1.2.0.dev47 (UTC 2006-11-01)\n   Audio #1\n      ID : 1\n      Format : AC-3\n      Format/Info : Audio Coding 3\n      Codec ID : 2000\n      Duration : 1h 33mn\n      Bit rate mode : Constant\n      Bit rate : 448 Kbps\n      Channel(s) : 6 channels\n      Channel positions : Front: L C R, Surround: L R, LFE\n      Sampling rate : 48.0 KHz\n      Stream size : 299 MiB (30%)\n      Alignment : Split accross interleaves\n      Interleave, duration : 96 ms (2.40 video frames)\n      Interleave, preload duration : 96 ms\n      Language : portuguese\n\nIMDB: tt0119844\n\nPortuguese audio; English, Spanish and Portuguese (for the dialect parts) subtitles\n\nPosted originally at Secret-Cinema by Fellow Traveler","torrent":{"xt":"urn:btih:fdbe923d3e0b217a002dedf2868602a6d0defb26","amp;dn":"Pedro+Costa+-+Ossos+%28Bones%29+-+1997","amp;tr":["udp%3A%2F%2Ftracker.openbittorrent.com%3A80","udp%3A%2F%2Fopen.demonii.com%3A1337","udp%3A%2F%2Ftracker.coppersurfer.tk%3A6969","udp%3A%2F%2Fexodus.desync.com%3A6969"],"infoHash":"fdbe923d3e0b217a002dedf2868602a6d0defb26","infoHashBuffer":{"type":"Buffer","data":[253,190,146,61,62,11,33,122,0,45,237,242,134,134,2,166,208,222,251,38]},"announce":[],"urlList":[]}}